<svg id="Capa_1" data-name="Capa 1" xmlns="http://www.w3.org/2000/svg" viewBox="0 0 1641.65 757.87"><defs><style>.cls-1{fill:#fff;}.cls-2{fill:#96989a;}.cls-3{fill:#476c9b;}</style></defs><title>ico-briment</title><path class="cls-1" d="M1782.41,767.82c-1.15-1.41-2.15-2.49-2.69-3.07L1770,754.14q-11.52-12.5-23-25l-1.85-2c-6.62-7.14-13.46-14.52-20.43-21.79s-14-14.5-21-21.74c-8.29-8.58-16.86-17.44-25.2-26.17-14.85-15.53-36.6-18.43-55.42-7.36-8.09,4.75-14.67,8.44-20.7,11.59-18.41,9.63-33.76,15.59-48.28,18.77s-27.41,3.45-39.3.82c-14.7-3.26-28.7-10.15-44-21.67-10.53-7.91-18.8-16.17-25.29-25.25-9.72-13.61-15.07-30.23-17.36-53.89-1.33-13.79-1.66-27.91-2-42.86-.1-4.59-.16-9.16-.22-14-.07-6.36-.16-12.88-.36-19.51l17.9-9.43,9-4.76c27.93-14.63,52-24.48,75.69-31,21.53-5.92,39.27-7.51,55.83-5,10.66,1.61,18.41,5.32,24.41,11.68a71.08,71.08,0,0,1,4.09,6c.87,1.34,1.74,2.7,2.65,4.06l25.65,38.6,34.43-31,.37-.32a50.64,50.64,0,0,0,4.16-4q5.54-5.91,11-11.84,8.38-9,16.77-18l34.68-37q12.9-13.74,25.79-27.49c1.44-1.53,2.86-3.08,4.27-4.62,1.75-1.9,3.39-3.69,5-5.36a41.81,41.81,0,0,0-1.73-60.25l-.31-.31c-.39-.4-.79-.8-1.19-1.19-31.72-31.24-69.94-55-113.58-70.59a351.63,351.63,0,0,0-96.67-19.43,364,364,0,0,0-65.1,2,360,360,0,0,0-86.45,21.21,343.47,343.47,0,0,0-64.86,32.47,51.48,51.48,0,0,0-9.53,7.64,244.51,244.51,0,0,0-40-27.91c-32.36-18.14-68.42-28.72-107.19-31.43a289.06,289.06,0,0,0-49.3.78,305.06,305.06,0,0,0-43,7.56,325.37,325.37,0,0,0-79.63,31.68c-12.31-6.82-24-13-35.46-18.73-29.2-14.63-59.68-22.93-90.59-24.67a385.1,385.1,0,0,0-56.09,1.23l-2.78.24a149.29,149.29,0,0,0-20.69,2.8c-33.89,7.57-62.72,18.58-88.16,33.66A217.37,217.37,0,0,0,689,288c-16.86-13.47-35.92-24.27-58.13-33-38.78-15.16-81.08-22.62-129.33-22.8h-.2c-14.39,0-26.89,5.77-37.16,17.17l-8.23,9.14c-12.63,14-25.7,28.51-38.56,42.71l-35.86,39.53c-.18-12.15-.27-24.38-.35-36.32-.11-17-.22-34.49-.64-51.9-.24-9.81-.24-19.58-.24-29.93,0-5.46,0-10.93,0-16.39,0-5.69-.13-20.81-13.11-33.18-12.27-11.7-26.78-11.68-32.27-11.69H306.91c-11.24,0-22.28.37-32.94.75-9.4.33-18.28.65-27.11.69-12.55.05-25.1.35-37.25.64q-7.16.18-14.32.33c-5.31.11-19.43.41-31.38,12.25-12.6,12.49-12.47,27.74-12.43,32.75.09,10.62.32,21.49.68,32.3.35,10.62.42,21.2.5,32.4.08,12.46.17,25.34.68,38.33.4,10.32.46,20.67.52,31.63.06,10.77.12,21.91.54,33.18s.48,22.38.56,34.22c.07,12.17.15,24.75.63,37.44.41,10.61.48,21.24.55,32.49.07,10.09.14,20.52.47,31,.4,12.61.52,25.67.63,38.3.13,13,.25,26.54.68,40,.29,9.5.3,19,.31,29.11,0,3,0,6,0,9a150.55,150.55,0,0,0,2.66,29.27,329.51,329.51,0,0,0,29.77,86.32,306.55,306.55,0,0,0,64.07,84.75,321.76,321.76,0,0,0,32.12,26.35,338.06,338.06,0,0,0,75.87,40.61A356.32,356.32,0,0,0,478.11,919c5.85.19,11.38.29,16.64.29,11.26,0,21.32-.44,30.89-1.34a380.12,380.12,0,0,0,46.83-7.39q13.18-2.93,26.27-7.07l64.15,8.09,1.15.16a49.75,49.75,0,0,0,6.45.53l123.58,1.29h1.34l1.68,0a42.13,42.13,0,0,0,42.46-44.15c0-.38,0-.76,0-1.13V852.39q0-55.12,0-110.23a43.11,43.11,0,0,0-11.36-31.73l-14.89-16.24c12.47-36.86,20.51-78,24.53-125.74,1.76-20.82,2.59-38,2.6-54.13a156.79,156.79,0,0,1,1.8-22.62c1.8-12.27,4.69-21.54,9.09-29.17,4.66-8.08,9.11-10.61,12.47-11.91s7.72-1.64,13.12-1c8,1,11.07,3.64,13.76,7.91,3.49,5.55,5.95,12.77,8.22,24.13,2.47,12.41,2.86,26.26,3.27,40.93l.1,3.59c.53,18.34.64,37.23.76,55.5.06,10.56.13,21.48.28,32.3.58,43.33.17,87.25-.34,132.19-.19,16.82-.45,33.95-.71,50.53-.35,22.7-.71,46.19-.89,69.36,0,5.62-.17,20.54,12,33s27,12.81,32.66,12.92l10.2.21,53.6,1.09,47.09.91,26.13.5,1,0c5.94.42,21.37,1.42,34.7-11.24s13.16-28.44,13-34.34q-.11-5.48-.19-10.95c-.18-11.28-.36-23-.84-34.67-.57-14.09-1-28.52-1.43-42.49q-.39-13-.81-26c-.55-16.14-.92-33.41-1.14-52.78l-.09-7.8c-.39-34.16-.79-69.48.62-103.7l.2-5c.57-13.91,1.11-27,2-40.28,1.26-18.45,3.49-37.54,6.62-56.74,1.93-11.85,4.37-20,7.91-26.48,1.19-2.17,3-5,4.84-6.29,8.78-6,17-7,27.59-3.41,6.72,2.28,9.56,5.46,11.25,12.58a125,125,0,0,1,3,23.89c.34,8.53.41,17.14.48,26.25s.14,18.42.5,27.93c.19,4.82.3,9.64.42,14.75.31,13.45.64,27.36,2.31,41.9a424.76,424.76,0,0,0,9.67,55.2,351.33,351.33,0,0,0,15.7,47.74l-27.13,1.8v43.27c0,4.1,0,8.19,0,12.29l0,9.19c-.2,33.11-.41,67.34-.68,101-.14,18,9,28.79,14.4,33.6a42.25,42.25,0,0,0,28.38,10.65c1,0,1.91,0,2.87-.09h1l120.89-.47h33.72l9.19-28.06a395.07,395.07,0,0,0,43.34,15.33A292.11,292.11,0,0,0,1500.09,912c14.32,1.38,33.36,2.82,53.58,1.65,11.92-.69,26-1.69,40.37-3.86,31.76-4.83,63.74-14.77,95-29.55,31-14.63,60-33.51,83.35-48.69,11.42-7.43,18.18-17.33,20.09-29.43C1793.24,797.6,1795.41,783.89,1782.41,767.82ZM503.57,456.8l15.06-.44h.21a52.16,52.16,0,0,0,7.71-.63c2.82-.45,7.56-.64,16.1,2.89,15.56,6.42,30,16.65,40.85,24.85,3.58,2.7,7.19,5.6,11,8.68,1.84,1.48,3.68,3,5.52,4.41l9.83,7.8c-.07,1.07-.14,2.12-.22,3.2-.39,5.91-.74,11.84-1.1,17.76-.71,11.73-1.38,22.82-2.31,34-1,12-2.15,24.71-4.3,36.65a172,172,0,0,1-8.31,31c-4.68,12.2-12.75,22.9-24.66,32.71-21.83,18-45.32,27.25-71.83,28.41-15.16.67-28.67-1.32-41.3-6.06-25.22-9.47-43.65-26.14-56.34-51-9.88-19.33-15-40.85-15.64-65.79-.48-19-.47-38.58-.45-57.52,0-15.28,0-30.95-.23-46.69,3.86-.19,7.94-.27,12.16-.35,4.87-.09,9.91-.18,15.19-.45,11.19-.58,22.74-1,33.91-1.38,8.73-.31,17.76-.62,26.73-1C481.85,457.41,492.89,457.1,503.57,456.8Z" transform="translate(-151.47 -161.37)"/><path class="cls-2" d="M306.75,201.3h28c5.26,0,5.31,0,5.35,5.13.1,15.67-.1,31.35.28,47,.83,34.51.44,69,1.3,103.52.74,29.66.19,59.33,1,89,1.15,40.11,0,80.22,1,120.32.74,29,6.71,57,20,83,17,33.27,42.82,57,77.91,70.2,18.35,6.89,37.47,9.43,57.1,8.58,36.15-1.58,67.7-14.62,95.5-37.49,16.31-13.42,29-29.42,36.59-49.28A211.22,211.22,0,0,0,641.15,603c2.42-13.38,3.68-26.91,4.81-40.46,1.45-17.46,2.3-34.95,3.46-52.42,1.49-22.48,3.08-45,6.56-67.25,4.09-26.25,10.61-51.86,22.51-75.77,15.11-30.38,37.53-54,66.69-71.33,23.81-14.11,49.63-23,76.5-29,6-1.33,12.17-1.69,18.28-2.23a346.27,346.27,0,0,1,50.3-1.14c26.39,1.49,51.3,8.66,74.92,20.49,16.51,8.28,32.72,17.1,48.74,26.27,3.94,2.26,6.81,2,10.6-.35A287.09,287.09,0,0,1,1107.9,274a264.54,264.54,0,0,1,37.36-6.57,247.94,247.94,0,0,1,42.46-.68c32,2.24,62.28,10.65,90.42,26.42,40.56,22.75,69.42,55.84,87.39,98.54a220.56,220.56,0,0,1,14.75,53.16c2.57,17.15,3.85,34.39,4.75,51.71.73,14,.6,28,.93,41.94.35,15.28.7,30.57,2.17,45.78,2.54,26.31,8.95,51.35,24.63,73.29a156.29,156.29,0,0,0,33.8,34c17.92,13.46,37.29,23.84,59.42,28.75,19,4.2,37.72,3.31,56.5-.8,20.56-4.5,39.71-12.7,58.26-22.39,7.6-4,15.06-8.22,22.45-12.57,2.44-1.43,4-1.75,6.23.53,15.34,16,30.84,31.93,46.21,48,7.36,7.67,14.57,15.49,21.79,23.29q16.36,17.65,32.63,35.38c.38.41.77.81,1.12,1.25,2.39,2.94,2.42,3-.68,5-25.49,16.57-51,33-78.62,46-26.77,12.64-54.63,21.72-84,26.17-12.17,1.85-24.39,2.77-36.67,3.48-15.89.92-31.68,0-47.43-1.53a255,255,0,0,1-46.51-9.23,344,344,0,0,1-98.82-46.32c-14.83-10.12-28.82-21.28-41-34.58a331.14,331.14,0,0,1-44.74-62,305.26,305.26,0,0,1-29.47-74.66,384.62,384.62,0,0,1-8.73-50c-2-17.83-1.81-35.73-2.49-53.6-.69-18.09-.27-36.19-1-54.26a164.09,164.09,0,0,0-4-31.53c-4.91-20.68-17.7-34.56-37.3-41.22-22-7.46-43.41-5.1-63,8.23-7.54,5.14-13,12.17-17.4,20.13-6.72,12.27-10.09,25.61-12.31,39.27-3.26,20-5.66,40.17-7,60.44-1.06,15.44-1.64,30.88-2.27,46.34-1.56,37.86-1,75.73-.56,113.59.2,17.89.55,35.8,1.15,53.69.78,22.92,1.32,45.85,2.25,68.76.61,14.92.73,29.83,1,44.74.09,5.29,0,5.28-5.06,4.92-1.12-.08-2.24-.09-3.36-.11q-36.36-.7-72.72-1.4L946.68,872c-5.44-.12-5.49-.13-5.44-5.65.32-39.92,1.15-79.83,1.6-119.75.51-44.4.93-88.8.34-133.19-.4-29.47-.21-59-1.06-88.41-.49-17.11-.75-34.29-4.12-51.19-2.64-13.23-6.31-26-13.6-37.61-9.95-15.82-24.54-24.06-42.72-26.3-11-1.36-21.94-.69-32.44,3.37-14.56,5.64-25,15.92-32.69,29.24s-11.78,28.1-14,43.34a196.79,196.79,0,0,0-2.22,28.38c0,17-1,33.92-2.46,50.82-3.41,40.37-10.05,80.15-23.35,118.6C761.62,720.88,742.88,754.79,716.2,784c-19.77,21.66-42.8,39.31-68.17,54-26.49,15.29-54.48,26.77-84.39,33.42a313.81,313.81,0,0,1-84.36,7.51A314.72,314.72,0,0,1,376.85,858,295.84,295.84,0,0,1,310,822.23a278.91,278.91,0,0,1-28.09-23.06,265.38,265.38,0,0,1-55.73-73.7A288.37,288.37,0,0,1,200,649.62a113.5,113.5,0,0,1-1.9-21.66c0-13.06.06-26.13-.35-39.18-.82-26.11-.49-52.23-1.31-78.33-.67-21.26-.21-42.53-1-63.77-.91-23.87-.31-47.76-1.2-71.61-.8-21.64-.21-43.29-1.06-64.9-.92-23.5-.39-47-1.17-70.49q-.52-15.66-.66-31.32c0-4.53,0-4.57,4.65-4.66,17-.36,33.94-.9,50.9-1C266.85,202.64,286.78,201.24,306.75,201.3Z" transform="translate(-151.47 -161.37)"/><path class="cls-2" d="M1648.28,453.42c-3.65-5.49-6.71-10.83-11-15.32-12.94-13.74-29.17-21-47.54-23.81-24.58-3.71-48.66-.54-72.41,6-29.24,8-56.85,20.1-83.65,34.15-4.39,2.3-8.78,4.62-13.59,7.16-1.81-9.38-3.13-18-4.92-26.49a318.22,318.22,0,0,0-25.78-74.23c-7-14.41-14.59-28.55-22.09-42.73-1.95-3.69-1.91-3.77,1.58-6a306.24,306.24,0,0,1,57.4-28.69,318.25,318.25,0,0,1,76.83-18.85,326.55,326.55,0,0,1,58-1.8,309.61,309.61,0,0,1,85.67,17.17c37.37,13.36,70.61,33.5,99,61.43.8.78,1.57,1.6,2.39,2.35,1.24,1.12,1.11,2.08,0,3.27-3.22,3.37-6.33,6.84-9.52,10.25q-30.23,32.24-60.47,64.47-14,14.9-27.86,29.85C1649.84,452.09,1649.25,452.55,1648.28,453.42Z" transform="translate(-151.47 -161.37)"/><path class="cls-2" d="M624.76,465.15c-5.69-4.52-11.39-9.23-17.28-13.68C592,439.75,575.86,429,557.77,421.56c-12.12-5-24.54-7.51-37.66-5.41a23.6,23.6,0,0,1-2.79.15c-16,.5-32.07.83-48.09,1.55-20.3.91-40.62,1.37-60.91,2.42-12.47.64-25,.16-37.42,1.59a64.46,64.46,0,0,1-7.61.05c-.59-2,.8-2.64,1.61-3.53q41-45.18,82-90.35,23.49-25.92,46.86-51.92c2-2.25,4-4,7.5-4,39.46.15,78,5.61,114.92,20.06,18.34,7.17,35.43,16.61,50.6,29.3,3.66,3.07,3.64,3.11,1,6.85-17.28,24.47-29.87,51.12-37,80.28a183.38,183.38,0,0,0-5.21,51c.07,1.67,0,3.34-.06,5C625.5,464.73,625.24,464.83,624.76,465.15Z" transform="translate(-151.47 -161.37)"/><path class="cls-3" d="M1364.63,874h-4.88l-120.91.48a21.62,21.62,0,0,0-2.79,0c-3,.39-3.74-1.07-3.72-3.87q.45-55.12.73-110.26c0-6.12,0-12.24,0-18.37,2.29-.15,2.55,1.4,3.19,2.38,26.22,40.06,59,74,96.4,103.65,9.35,7.42,18.95,14.52,28.43,21.77l3.92,3C1364.88,873.22,1364.75,873.62,1364.63,874Z" transform="translate(-151.47 -161.37)"/><path class="cls-3" d="M667.76,871.77l9.49-6c28.49-17.95,52.86-40.57,74.67-66.07,15.41-18,29.33-37.14,42.68-56.71,1.23-1.81,2.53-3.57,4-5.63,1.22,1.33.83,2.66.83,3.84q0,63.46,0,126.94c0,.75,0,1.5,0,2.24.14,2-.57,3.23-2.83,3-.74-.06-1.49,0-2.23,0l-123.58-1.3C670.24,872.14,669.71,872,667.76,871.77Z" transform="translate(-151.47 -161.37)"/></svg>