<svg id="Capa_1" data-name="Capa 1" xmlns="http://www.w3.org/2000/svg" viewBox="0 0 1567.4 1052.78"><defs><style>.cls-1{fill:#0ab2c2;}.cls-2{fill:#98dee5;}.cls-3{fill:#96989a;}.cls-4{fill:#476c9b;}.cls-5{fill:#0bb2c2;}.cls-6{fill:#486c9b;}.cls-7{fill:#486d9b;}.cls-8{fill:#4d719e;}</style></defs><title>logo-briment</title><path class="cls-1" d="M1745,795.39c-3.64,5.13-6.19,10.87-9.19,16.36-10.84,19.78-21.5,39.66-32.38,59.41a11.26,11.26,0,0,0-1.11,5.89c0,15.1,0,30.21,0,45.32,0,4.86,0,4.88-4.9,4.93q-3.92,0-7.83,0c-4.93,0-5-.06-5-4.84,0-14.36-.1-28.72,0-43.09a21.11,21.11,0,0,0-2.93-11c-13.24-24-26.1-48.19-39.07-72.33a7.43,7.43,0,0,1-.34-1.56c6-.88,12.06-.43,18.06-.25,1.79.06,2.08,2,2.73,3.24,4.42,8.62,8.77,17.29,13.15,25.93,5.47,10.8,11,21.6,16.48,32.5,2.44-.64,2.63-2.74,3.41-4.25,8.83-17.26,17.81-34.45,26.25-51.89,2.24-4.64,4.88-6.31,9.8-5.79,4.24.44,8.56.2,12.85.27Z" transform="translate(-177.6 -14.79)"/><path class="cls-2" d="M177.6,808.82a5.15,5.15,0,0,1,1.11,0c1.95,1.92,1.77,4.43,1.78,6.81.21,36.09-.23,72.19.24,108.28a4.78,4.78,0,0,1-1,3.66l-2.15-1.18Z" transform="translate(-177.6 -14.79)"/><path class="cls-3" d="M296.47,14.79h28c5.26,0,5.32,0,5.36,5.13.1,15.67-.1,31.35.28,47,.83,34.51.44,69,1.3,103.52.74,29.66.19,59.33,1,89,1.14,40.11,0,80.22,1,120.32.74,29,6.71,57,20,83,17,33.27,42.82,57,77.91,70.2,18.35,6.89,37.47,9.43,57.1,8.58,36.15-1.58,67.7-14.62,95.5-37.49,16.31-13.42,29-29.42,36.59-49.28a211.22,211.22,0,0,0,10.32-38.24c2.42-13.38,3.68-26.91,4.81-40.46,1.44-17.46,2.3-34.95,3.46-52.42,1.48-22.48,3.08-45,6.56-67.25,4.09-26.25,10.61-51.86,22.51-75.77,15.11-30.38,37.52-54,66.69-71.33,23.81-14.11,49.63-23,76.5-29,6-1.33,12.16-1.69,18.28-2.23A346.27,346.27,0,0,1,880,76.85c26.39,1.49,51.3,8.66,74.92,20.49,16.51,8.28,32.72,17.1,48.74,26.27,3.94,2.26,6.81,2,10.6-.35a287.09,287.09,0,0,1,83.38-35.82A264.54,264.54,0,0,1,1135,80.87a247.92,247.92,0,0,1,42.46-.68c32,2.24,62.28,10.65,90.41,26.42,40.57,22.75,69.43,55.84,87.4,98.54A221,221,0,0,1,1370,258.31c2.57,17.15,3.85,34.39,4.75,51.71.73,14,.6,28,.92,41.94.36,15.28.71,30.57,2.18,45.78,2.54,26.31,9,51.35,24.63,73.29a156.29,156.29,0,0,0,33.8,34c17.91,13.46,37.29,23.84,59.42,28.75,19,4.2,37.72,3.31,56.5-.8,20.56-4.5,39.71-12.7,58.26-22.4,7.6-4,15.06-8.21,22.45-12.56,2.44-1.43,4-1.75,6.23.53,15.33,16,30.84,31.93,46.21,48,7.36,7.67,14.57,15.49,21.79,23.29q16.35,17.65,32.63,35.38c.38.41.77.81,1.12,1.25,2.39,2.94,2.42,3-.68,5-25.49,16.57-51,33-78.62,46-26.77,12.64-54.64,21.72-84,26.17-12.17,1.85-24.39,2.77-36.67,3.48-15.89.92-31.68,0-47.43-1.53a255,255,0,0,1-46.51-9.23A344,344,0,0,1,1348.18,630c-14.83-10.12-28.82-21.28-41-34.58a330.69,330.69,0,0,1-44.74-62A305.26,305.26,0,0,1,1233,458.77a384.62,384.62,0,0,1-8.73-50c-2-17.83-1.81-35.73-2.49-53.6-.69-18.09-.27-36.19-1-54.26a164.09,164.09,0,0,0-4-31.53c-4.91-20.68-17.7-34.56-37.3-41.22-22-7.46-43.41-5.1-63,8.23-7.54,5.14-13,12.17-17.4,20.13-6.73,12.27-10.09,25.61-12.31,39.27-3.26,20-5.66,40.17-7,60.44-1.06,15.44-1.64,30.88-2.27,46.34-1.56,37.86-1,75.73-.56,113.59.2,17.89.54,35.8,1.15,53.69.78,22.92,1.32,45.85,2.25,68.76.61,14.92.73,29.83,1,44.74.1,5.29,0,5.28-5,4.92-1.12-.08-2.24-.09-3.36-.11q-36.36-.71-72.73-1.4l-63.77-1.29c-5.44-.12-5.49-.13-5.44-5.65.32-39.92,1.15-79.83,1.6-119.75.5-44.4.93-88.8.33-133.19-.39-29.47-.2-58.95-1-88.41-.49-17.11-.75-34.29-4.13-51.19-2.63-13.23-6.3-26-13.59-37.61-10-15.82-24.54-24.06-42.72-26.3-11-1.36-21.94-.69-32.44,3.37-14.56,5.64-25,15.92-32.69,29.24s-11.78,28.1-14,43.34A196.8,196.8,0,0,0,790,327.69c0,17-1,33.92-2.45,50.82-3.41,40.37-10.05,80.15-23.35,118.6-12.89,37.26-31.63,71.17-58.31,100.39-19.77,21.66-42.8,39.31-68.17,54-26.49,15.29-54.49,26.77-84.39,33.42A313.81,313.81,0,0,1,469,692.39a314.72,314.72,0,0,1-102.43-20.88,295.84,295.84,0,0,1-66.88-35.79,278.91,278.91,0,0,1-28.09-23.06A265.38,265.38,0,0,1,215.87,539a288.49,288.49,0,0,1-26.14-75.85,113.5,113.5,0,0,1-1.9-21.66c-.05-13.06.06-26.13-.35-39.18-.82-26.11-.49-52.23-1.31-78.33-.67-21.26-.21-42.53-1-63.77-.91-23.87-.31-47.76-1.2-71.61-.8-21.64-.21-43.29-1.06-64.9-.92-23.5-.39-47-1.17-70.49q-.53-15.66-.66-31.32c0-4.53.05-4.57,4.65-4.66,17-.36,33.93-.9,50.9-1C256.57,16.13,276.5,14.73,296.47,14.79Z" transform="translate(-177.6 -14.79)"/><path class="cls-3" d="M1638,266.91c-3.65-5.49-6.72-10.83-11-15.32-12.94-13.74-29.17-21-47.55-23.81-24.57-3.71-48.66-.54-72.4,6-29.24,8-56.86,20.1-83.65,34.15-4.39,2.3-8.78,4.62-13.59,7.16-1.81-9.38-3.13-18-4.92-26.49a318.68,318.68,0,0,0-25.78-74.23c-7-14.41-14.59-28.55-22.09-42.73-2-3.69-1.91-3.77,1.58-6a306.24,306.24,0,0,1,57.4-28.69,318.25,318.25,0,0,1,76.83-18.85,326.55,326.55,0,0,1,58-1.8,309.61,309.61,0,0,1,85.67,17.17c37.37,13.36,70.61,33.5,99,61.43.8.78,1.56,1.6,2.39,2.35,1.24,1.12,1.11,2.08,0,3.27-3.22,3.37-6.33,6.84-9.52,10.24q-30.23,32.25-60.47,64.48-14,14.9-27.86,29.85C1639.56,265.58,1639,266,1638,266.91Z" transform="translate(-177.6 -14.79)"/><path class="cls-3" d="M614.48,278.64c-5.69-4.52-11.39-9.23-17.28-13.68-15.51-11.72-31.62-22.44-49.71-29.91-12.13-5-24.54-7.51-37.66-5.41a23.6,23.6,0,0,1-2.79.15c-16,.5-32.07.83-48.09,1.55-20.3.91-40.62,1.37-60.91,2.42-12.47.64-25,.16-37.43,1.59a64.28,64.28,0,0,1-7.6.05c-.59-2,.8-2.64,1.61-3.53q41-45.18,81.95-90.35,23.49-25.92,46.86-51.92c2-2.25,4-4,7.5-4,39.46.15,78,5.61,114.92,20.06,18.34,7.17,35.43,16.61,50.6,29.3,3.66,3.07,3.64,3.11,1,6.85-17.28,24.47-29.87,51.12-37,80.28a183,183,0,0,0-5.21,51c.07,1.67,0,3.34-.06,5C615.22,278.22,615,278.32,614.48,278.64Z" transform="translate(-177.6 -14.79)"/><path class="cls-4" d="M1354.34,687.5h-4.87l-120.91.48a21.62,21.62,0,0,0-2.79,0c-3,.39-3.74-1.07-3.72-3.87q.45-55.12.73-110.26c0-6.12,0-12.24,0-18.37,2.29-.15,2.55,1.4,3.19,2.38,26.21,40.06,59,74,96.4,103.65,9.35,7.42,18.95,14.52,28.43,21.77l3.92,3Z" transform="translate(-177.6 -14.79)"/><path class="cls-4" d="M657.48,685.26l9.49-6c28.49-17.95,52.86-40.57,74.67-66.07,15.41-18,29.33-37.14,42.67-56.71,1.24-1.81,2.54-3.57,4-5.63,1.22,1.33.84,2.66.84,3.84q0,63.46,0,126.94c0,.75,0,1.5,0,2.24.13,2-.58,3.23-2.83,3-.74-.06-1.49,0-2.24,0l-123.58-1.3C660,685.63,659.43,685.51,657.48,685.26Z" transform="translate(-177.6 -14.79)"/><path class="cls-1" d="M1268.15,829.12c-2.58,7.15-5.18,14.29-7.74,21.44-4.91,13.68-9.77,27.38-14.69,41.06a12.63,12.63,0,0,1-18.73,6.23c-2.35-1.54-3.14-4-4-6.52q-10.2-28.71-20.49-57.39c-.6-1.69-.85-3.59-2.61-5.12-1.92,15.81-3.82,31.33-5.69,46.87-1.94,16.09-3.89,32.18-5.72,48.29-.31,2.67-1.55,3.44-4,3.35-3.54-.13-7.1-.16-10.63,0-2.81.13-3.62-1-3.23-3.67,1-6.63,1.82-13.29,2.77-19.93q4.82-33.75,9.67-67.49c1.55-10.88,3-21.77,4.61-32.65.87-6.1,3.2-8.86,7.82-9.42,6.19-.76,10.24,1.38,12.29,7.15,4.91,13.88,9.61,27.83,14.38,41.75,3.14,9.17,6.22,18.36,9.41,27.51.64,1.85.94,4,2.83,5.49,2.05-1.31,2.2-3.47,2.84-5.3q11.49-33.28,22.92-66.6a36.28,36.28,0,0,1,1.82-4.68c2.16-4.21,5.88-5.92,11.29-5.34,4.26.46,6.64,2.56,7.49,7.69,1.56,9.36,2.8,18.79,4.14,28.19q4.77,33.48,9.52,67c1.23,8.66,2.55,17.32,3.75,26,.55,4,.38,4.21-3.5,4.29-3.36.07-6.72-.1-10.07.06-2.76.12-3.9-.81-4.22-3.71-1.68-15-3.6-30-5.39-45q-2.94-24.69-5.81-49.39Z" transform="translate(-177.6 -14.79)"/><path class="cls-1" d="M458.89,835.14c-3.9,32.16-7.68,63.43-11.46,94.69-.49,4-.48,4-4.3,4.14-3.55.07-7.09-.08-10.64,0-2.46.08-3.37-.88-3-3.33.92-6.27,1.73-12.55,2.62-18.82L443,835.49c1.24-8.66,2.31-17.36,3.77-26,1.36-8,7.79-11.08,15-7.61,3.19,1.53,4.44,4.38,5.48,7.41q6.35,18.51,12.65,37,5.34,15.61,10.71,31.2c.59,1.73.85,3.64,2.58,5.16,2.22-1.12,2.41-3.52,3.08-5.47q10.33-29.85,20.52-59.75c1.14-3.35,2.16-6.76,3.51-10a10.85,10.85,0,0,1,14.34-6c3.88,1.53,4.86,4.94,5.41,8.51.93,6.08,1.67,12.18,2.53,18.27q5.31,37.37,10.65,74.71c1.29,9,2.64,18.07,3.81,27.12.49,3.75.27,3.89-3.31,4s-7.09-.09-10.63,0c-2.63.11-3.55-1-3.82-3.57-1.07-10-2.3-20-3.48-30q-3.52-29.72-7.06-59.4c-.2-1.61-.64-3.18-1-5.11-1.92,1.94-2.21,4.24-2.94,6.27-6.72,18.58-13.34,37.19-20,55.78-2.78,7.73-10.74,10.75-18.07,7-2.73-1.42-3.73-4-4.68-6.67Q472,869.84,461.8,841.4C461.13,839.53,460.75,837.48,458.89,835.14Z" transform="translate(-177.6 -14.79)"/><path class="cls-1" d="M691.18,830.92v95.59c0,1.49,0,3,0,4.47.06,2.1-.89,3-3,3-4.1-.07-8.2,0-12.31,0a2.06,2.06,0,0,1-2.37-2.37c0-1.31,0-2.61,0-3.92,0-37.67.19-75.35-.13-113-.09-11.29,4.73-14.35,14.47-14,5.22.16,8.17,2.61,10.44,6.95,9.67,18.5,19.46,36.94,29.21,55.4,6.44,12.2,12.85,24.41,19.35,36.58.74,1.4,1.06,3.19,2.79,4,1.38-1.87.75-4,.75-6q.07-44.76,0-89.53c0-1.49.07-3,0-4.48-.1-2.2,1-2.92,3.07-2.88,3.91.06,7.83.05,11.75,0,1.86,0,2.77.74,2.69,2.64,0,1.12,0,2.24,0,3.36V920.28c0,10.73-4.68,14.8-15.31,13.66-4.55-.49-7.38-3-9.42-6.93-6.36-12.24-12.84-24.42-19.26-36.62l-27.86-53c-1.19-2.27-2.43-4.51-3.66-6.76Z" transform="translate(-177.6 -14.79)"/><path class="cls-1" d="M1550.42,822.79v97.53c0,1.31-.05,2.62,0,3.92.09,2-.61,3.13-2.87,3.07-3.91-.1-7.83,0-11.75,0-1.81,0-2.81-.71-2.8-2.6,0-1.12,0-2.24,0-3.36,0-37.68.17-75.36-.1-113-.08-11.32,4-14.76,14.68-14.36,4.7.17,7.64,2.19,9.73,6.19,4.73,9.1,9.59,18.13,14.38,27.19q17.49,33.15,35,66.28c.66,1.26,1,2.76,3,4.09v-6.27q0-45.33,0-90.66c0-7.2-1-6.85,6.43-6.7,3.64.08,8.25-1.71,10.67,1,2.13,2.37.65,6.79.66,10.3q.06,51.76,0,103.53c0,1.68,0,3.36,0,5-.07,11.12-8.49,16.67-18.92,12.5-3.21-1.27-4.8-4-6.3-6.8q-9.87-18.83-19.79-37.62-14.19-27-28.39-53.94C1553.23,826.43,1552.75,824.57,1550.42,822.79Z" transform="translate(-177.6 -14.79)"/><path class="cls-1" d="M569.17,867c0-8,0-16.05,0-24.07-.08-21.75,20-42.41,43.07-42.12,13.81.18,27.62,0,41.43,0,4,0,4,.12,4.08,4.05.3,9.63.3,9.63-9.14,9.63-10.26,0-20.52-.07-30.78,0-17.73.18-30.2,12.19-31.14,30-.21,3.91-.12,7.84-.06,11.76s.12,4.08,4,4.11c7.27.06,14.55,0,21.83,0,9.51,0,19,0,28.55,0,4.38,0,4.52.08,4.46,4.2-.15,11.36,1.75,9.28-9.33,9.38-14.92.14-29.85,0-44.78,0-4.65,0-4.73.08-4.74,4.61s-.06,9.34.27,14c1.13,15.69,15.48,27.75,30.16,27.36,11.56-.3,23.14-.05,34.71,0,1.3,0,2.61,0,3.91.05a2,2,0,0,1,2,2.15,5.15,5.15,0,0,0,0,.56c1.23,11.2,1.14,11.31-10.29,11.3s-22.77.16-34.14-.05c-21.3-.4-38.75-14.43-43.33-34.58a53.91,53.91,0,0,1-.87-11.69c-.05-6.9,0-13.81,0-20.71Z" transform="translate(-177.6 -14.79)"/><path class="cls-1" d="M955.88,860.41c0-7.65-.12-15.3,0-22.95a44.08,44.08,0,0,1,35.35-42.59,37,37,0,0,1,7.21-.72q19-.12,38.06-.06c4.39,0,4.39.08,4.51,4.15.28,9.54.28,9.54-9.21,9.54-9.14,0-18.28-.06-27.42,0-17.46.18-30.49,13-30.68,30.37-.16,14.92.06,29.84-.06,44.77-.14,17.11,14.8,30.76,30.19,30.31,10.81-.31,21.64-.06,32.46,0,4.63,0,4.63.07,4.72,4.58.2,9.47.2,9.47-9.33,9.47-10.64,0-21.27.14-31.9-.06a44.3,44.3,0,0,1-42.39-32.84,44.92,44.92,0,0,1-1.56-11.6c0-7.47,0-14.93,0-22.39Z" transform="translate(-177.6 -14.79)"/><path class="cls-1" d="M821.23,874.08q0-26.58,0-53.16c0-7.12.78-6.43-6.73-6.45-9.33,0-18.65,0-28,0-4.38,0-4.38-.08-4.5-4.16-.27-9.53-.27-9.53,9.21-9.53h80c1.31,0,2.61.06,3.92,0,2.13-.11,2.83.86,3,3,.87,10.74.93,10.73-9.78,10.73-8.21,0-16.42,0-24.63,0-4.76,0-4.81.07-4.82,5q0,23.22,0,46.45v60.43c0,1.12,0,2.24,0,3.36-.13,4.16-.15,4.34-4.54,4.22-4.23-.12-9.6,1.89-12.36-.95-2.5-2.57-.74-7.83-.76-11.9C821.19,905.41,821.23,889.75,821.23,874.08Z" transform="translate(-177.6 -14.79)"/><path class="cls-5" d="M404.74,867V807.76c0-1.3.06-2.61,0-3.91-.1-2,.5-3.15,2.78-3.1,4.1.1,8.2,0,12.3,0,1.83,0,2.75.78,2.7,2.66,0,1.3,0,2.61,0,3.91q0,60.07,0,120.15a26,26,0,0,0,0,2.79c.31,3-1.23,3.86-4,3.74a91.06,91.06,0,0,0-10,0c-3,.19-3.81-1.07-3.78-3.89.1-12.29,0-24.59,0-36.88Z" transform="translate(-177.6 -14.79)"/><path class="cls-6" d="M1366.17,1002.34c-.91,1.63-2.29,1.82-3.42,2.35-4.62,2.15-4.91,2.36-8.17-1.48-5.91-7-23.51-7.76-30.09,1.33a18,18,0,0,0-3.85,10.84c0,8.76-.15,17.52,0,26.28.21,9.26,6,15.72,15.18,17.24,15,2.5,25.19-7,23.91-22.11-.19-2.16-1-2.92-3-2.89q-7.26.11-14.53,0c-3.7-.06-3.69-.14-3.7-4.36s0-4.45,3.59-4.49c8.2-.07,16.4,0,24.6-.06,2.38,0,3.36.79,3.29,3.23-.14,5.21.12,10.45-.21,15.64a25.4,25.4,0,0,1-19.47,22.54,47.12,47.12,0,0,1-19.43.18,24.82,24.82,0,0,1-20.36-24q-.36-14,0-27.95a24.89,24.89,0,0,1,24.1-24.55,94.84,94.84,0,0,1,12.84.15C1355.78,991,1361.85,995.46,1366.17,1002.34Z" transform="translate(-177.6 -14.79)"/><path class="cls-7" d="M1428.61,1016.59c0-7.28,0-14.55,0-21.82,0-4.79.08-4.79,5.06-4.81h1.12c4.19.11,4.27.11,4.28,4.45,0,13.8.13,27.61,0,41.4-.1,8-1.63,15.56-7.11,21.85-7.76,8.9-20.29,12.06-32.19,8-10.22-3.47-17.87-13.54-18.4-25.1-.42-9.12-.21-18.27-.25-27.4,0-6.16,0-12.31,0-18.46,0-4.76.07-4.76,5-4.77.93,0,1.86,0,2.8,0a2,2,0,0,1,2.37,2.34c0,1.3,0,2.61,0,3.92q0,19.57,0,39.16a32.84,32.84,0,0,0,.86,8.31c2.45,9.47,10.08,15.65,18.85,15.12s16.27-8.13,17.29-17.66a26,26,0,0,0,.19-2.79q0-10.9,0-21.81Z" transform="translate(-177.6 -14.79)"/><path class="cls-4" d="M1450.4,1028.46c0-5.21-.27-10.45,0-15.65.71-11.46,10.46-21.74,21.88-22.52,8.73-.59,17.52-.18,26.28-.35,3.14-.07,3.08,1.86,3.07,4s-.09,4.07-3.17,4c-6.34-.12-12.7.28-19-.09a18.09,18.09,0,0,0-19.09,19.28c.48,8.66-.81,7.39,7.47,7.47,7.64.07,15.29,0,22.93,0,3.5,0,3.59.24,3.58,3.94s-.07,3.91-3.61,3.94c-8.58.08-17.16,0-25.73,0-4.49,0-4.5.08-4.57,4.65,0,1.49,0,3,0,4.48.29,9.21,6,15.68,15.24,17.18,4.64.76,9.31.25,14,.38,2.42.07,4.85,0,7.27,0,4.63.07,5.11.71,4.71,5.18-.19,2.16-1.18,2.88-3.22,2.86-8-.08-16,.24-24-.2-14.12-.79-24.43-12.57-24.21-25.26.08-4.47,0-9,0-13.43Z" transform="translate(-177.6 -14.79)"/><path class="cls-6" d="M1686.86,1067.34c-4.66,0-9.32.05-14,0-4.14-.06-4.2-.17-4.23-3.93s.06-4,4-4.08c7.83-.06,15.66,0,23.48,0,8.26,0,12.09-2.84,12.92-10,1-8.59-1.31-14.54-9.15-16.8-4.49-1.29-9.07-2-13.61-3a77.63,77.63,0,0,1-7.51-2.16c-13.9-4.52-16.19-21.5-8.71-31.39a13.77,13.77,0,0,1,11-5.85c9.13-.16,18.26,0,27.39-.18,3.2-.05,3,2,3,4.07s0,4-3.08,4c-7.08-.14-14.17-.08-21.25,0-6.38,0-9.44,2.33-10.51,7.71q-2,10,6.79,13.56c4.53,1.82,9.38,2.31,14.11,3.33a79.19,79.19,0,0,1,8.59,2.4c16.6,5.66,16.64,29.8,6.62,38.3a17.17,17.17,0,0,1-11.32,4c-4.85.06-9.69,0-14.54,0Z" transform="translate(-177.6 -14.79)"/><path class="cls-8" d="M1575.08,1028.24c0-11.17,0-22.35,0-33.53,0-4.68.08-4.68,4.54-4.76,1.12,0,2.24,0,3.36,0,1.88,0,2.69.91,2.65,2.73,0,1.12,0,2.24,0,3.36v64.83c0,1.49,0,3-.13,4.47a1.83,1.83,0,0,1-1.68,1.9,41.62,41.62,0,0,1-7.24-.11c-2.06-.29-1.5-2.29-1.5-3.67,0-8.76,0-17.52,0-26.27Z" transform="translate(-177.6 -14.79)"/><path class="cls-1" d="M266.19,869.39c-2.91-3.7-6.57-6.55-10.19-9.44.84-1.94,2.5-2.92,3.76-4.25a31.57,31.57,0,0,0-.41-44c-7.19-7.31-16.06-10.73-26.13-10.88-13.8-.2-27.6.14-41.38-.2-6.49-.17-10.72,2.26-13.13,8.14.07,1.49.19,3,.19,4.45q0,52.18,0,104.36a38.54,38.54,0,0,0,.86,9.94c2.28,4.83,6.31,6.47,11.4,6.44q18.16-.09,36.35,0a69.44,69.44,0,0,0,12.24-.93C274.56,927,282.49,890.16,266.19,869.39Zm-69.6-35.31c0-5.22.08-10.44,0-15.65-.06-2.65.45-4.09,3.64-4,10.24.21,20.49.05,30.73.22a24.12,24.12,0,0,1,11.74,3.23c6.32,3.64,9.83,9.09,9.7,16.45s-4.07,12.56-10.45,16a28.85,28.85,0,0,1-13.5,3.07c-9.32.14-18.64,0-27.95.11-2.8,0-4-.72-3.93-3.74C196.72,844.51,196.59,839.29,196.59,834.08Zm45.93,83.27a27.4,27.4,0,0,1-11.37,2.47c-10.24,0-20.47.11-30.71.07-3.75,0-3.81-.13-3.84-4.23,0-7.44,0-14.89,0-22.33,0-7.26,0-14.52,0-21.77,0-4.37.08-4.46,4.17-4.47,9.86,0,19.73,0,29.59.07a29.64,29.64,0,0,1,12.94,3c10,4.93,15.12,13,14.85,24.12C257.89,905.2,252.37,912.84,242.52,917.35Z" transform="translate(-177.6 -14.79)"/><path class="cls-1" d="M336.2,873.26c2.48-1.12,4.34-.66,6.13-.86,5.35-.59,10.84-.15,16.08-1.66,13.09-3.78,25-15.12,24.39-35.19-.59-19-13.67-33.61-32.68-34.47-15.63-.72-31.32-.33-47-.23-5,0-8.38,3.18-9.33,8a35.34,35.34,0,0,0-.44,6.67q0,55.95,0,111.89c0,1.11,0,2.24,0,3.35-.11,2.43,1.09,3.36,3.41,3.18,1.11-.08,2.25.08,3.36,0,3.47-.33,7.83,1.56,10.2-.91,2.13-2.2.7-6.41.71-9.73.07-16,0-32.08.07-48.11,0-1.36-.63-2.93.66-4.12,1.6.55,2.32,1.94,3.3,3q25.65,28.1,51.28,56.2c1.33,1.46,2.31,3.6,4.69,3.62,6.44.05,12.87,0,20.62,0ZM315,859.07c-3.79,0-3.85-.13-3.89-4.22-.06-6,0-11.91,0-17.87,0-6.33.1-12.66,0-19,0-2.66.89-3.6,3.55-3.56,9.68.14,19.4-.39,29,.25C363,816,367.93,831,364,845A16.24,16.24,0,0,1,353.2,856.2a49.23,49.23,0,0,1-14.77,2.64C330.62,859.13,322.79,859.09,315,859.07Z" transform="translate(-177.6 -14.79)"/><path class="cls-1" d="M1157.47,832.86a43.57,43.57,0,0,0-42.23-38.73c-6-.12-11.94-.13-17.9,0-22.81.56-41.67,19.55-42.1,42.45-.15,8,0,16,0,24h0c0,8.2-.17,16.41,0,24.6.5,20.27,16.64,38.29,36.66,41.3a114,114,0,0,0,25.1.52c24.4-1.73,40-22.54,40.69-40.54.34-9.32.24-18.64.24-27.95C1157.94,850,1158.4,841.42,1157.47,832.86Zm-17.32,51c-.38,17.71-15.77,30-29.91,29.39-2.61-.11-5.22,0-7.83,0-16.36-.46-29-12.89-29.38-29.18-.2-7.83,0-15.67,0-23.5h0c0-7.65.19-15.3,0-22.94-.45-14.15,12.27-29.85,30.12-29.75,3.73,0,7.51-.22,11.16.34,14.85,2.3,25.56,14.16,25.92,29.24Q1140.7,860.61,1140.15,883.83Z" transform="translate(-177.6 -14.79)"/><path class="cls-1" d="M1519.66,923.91c-.3-.88-.56-1.78-.84-2.67q-16-52.95-32.13-105.91c-1.25-4.1-2.49-8.21-4.09-12.18-2.32-5.76-6.89-8.67-13-8.95a112.32,112.32,0,0,0-11.75,0,13.49,13.49,0,0,0-12.26,8.35,66.08,66.08,0,0,0-2.82,7.89q-13.92,45.72-27.77,91.46c-2.22,7.31-4.39,14.63-6.63,21.94-.71,2.31-.31,3.53,2.43,3.44,3.54-.11,7.09,0,10.63,0,4.64,0,4.68,0,6-4.59,3.32-11.65,6.58-23.31,9.91-35,1.22-4.28,1.27-4.32,5.69-4.34,6.91,0,13.81,0,20.71,0,6.72,0,13.43-.06,20.15,0,5.32.06,5.26-1.18,7.1,5.4,3.26,11.66,6.67,23.28,9.85,35,.71,2.59,1.85,3.73,4.63,3.57,3.9-.21,7.83-.14,11.75,0C1519.87,927.41,1520.44,926.23,1519.66,923.91Zm-34.88-54.86h-41.44c-.85-2,.22-3.49.62-5q6.21-23.46,12.59-46.87a33.9,33.9,0,0,1,1.61-4.74,5.83,5.83,0,0,1,5.66-3.77,6.45,6.45,0,0,1,6.22,3.91,11.35,11.35,0,0,1,.7,2.11q7.08,26.4,14.13,52.8A6.55,6.55,0,0,1,1484.78,869.05Z" transform="translate(-177.6 -14.79)"/><path class="cls-1" d="M1400.83,826.83c-.92-7.67-2.87-15-8.28-21-7.21-7.92-16.39-11.53-26.9-11.68-13.8-.19-27.62.26-41.4-.22-8.26-.28-12.78,5.42-12.64,12.72.37,19,.13,38.05.12,57.07V893.4q0,14.26,0,28.54c0,5.82-.12,5.35,5.6,5.36,2.61,0,5.22,0,7.83,0,4.24-.07,4.32-.09,4.33-4.36,0-13.43,0-26.86,0-40.29,0-6.38-.57-5.89,6.11-6,11.37-.15,22.76.52,34.11-.59,15.29-1.49,26.45-11.12,30-25.9A66,66,0,0,0,1400.83,826.83Zm-18.2,18.73c-1.58,10.42-8.87,16-18.22,16.73-10.76.86-21.62.31-32.44.43-2.54,0-2.46-1.64-2.46-3.38q0-12,0-24.06c0-7.84,0-15.68,0-23.51,0-3.87.12-3.95,4.11-4,9,0,17.91,0,26.87,0a29.11,29.11,0,0,1,8.26,1.32c9,2.63,13.33,9.06,14.24,18.05A72.47,72.47,0,0,1,1382.63,845.56Z" transform="translate(-177.6 -14.79)"/><path class="cls-6" d="M1166,1012.46c-.77-11.4-10.89-21.54-22.23-22.19-9.28-.53-18.61-.32-27.92-.23-3.8,0-5.74,2-6.33,5.74a30.09,30.09,0,0,0-.15,4.46q0,14.25,0,28.49v30.16c.23,6.34,2.19,8.36,8.49,8.43,7.26.08,14.52.1,21.78,0a35.45,35.45,0,0,0,7.73-1.06c9.92-2.42,18.08-11.76,18.66-21.94A257.88,257.88,0,0,0,1166,1012.46Zm-10,29.27c-.2,9.12-6.25,15.76-15.29,17.14-5.93.9-11.91.23-17.86.42-2.69.09-2.93-1.58-2.93-3.64,0-9.13,0-18.27,0-27.4,0-8.76,0-17.52,0-26.28,0-3.89.13-4,4.12-4,4.85-.06,9.7-.12,14.54,0,10,.33,17.15,7.38,17.39,17.44C1156.19,1024.21,1156.17,1033,1156,1041.73Z" transform="translate(-177.6 -14.79)"/><path class="cls-7" d="M1202.15,1031.86c4.1-.34,7.24-.41,10.32-.89,10.83-1.7,17-9.41,16.72-20.85-.23-10.82-7.41-19.14-18.06-19.83-9.09-.58-18.25-.35-27.37-.23-4.14.05-5.93,2.14-6.28,6.32-.07.92,0,1.86,0,2.79v62.61c0,1.11,0,2.23,0,3.35,0,.78.24,1.74.94,1.87,2.74.53,5.66.92,8.23-.11,1.75-.7.94-3,.95-4.61.06-10.21,0-20.42,0-31.42,2.94,1.77,4.31,3.8,5.93,5.56,8.43,9.2,16.81,18.46,25.24,27.66,1.22,1.34,2.16,3.17,4.33,3.2,3.27,0,6.55,0,9.82,0l.54-1.07Zm-12.28-8.11c-1.67,0-2.23-1-2.22-2.48,0-3.53,0-7.06,0-10.59,0-3.34,0-6.68,0-10,0-1.87.74-2.72,2.62-2.7,5.94.08,11.91-.24,17.81.27,6.71.57,10.71,5.31,10.9,11.89.21,7.41-2.58,11-9.68,12.72C1202.87,1024.35,1196.35,1023.62,1189.87,1023.75Z" transform="translate(-177.6 -14.79)"/><path class="cls-6" d="M1535.39,1031.82c4-.3,7-.33,9.95-.76,10.8-1.58,17.27-9.43,17.16-20.61-.12-10.73-7.29-19.32-17.87-20.1-9.27-.69-18.64-.4-28-.28-3.88,0-5.53,2.07-5.85,6.07-.1,1.3,0,2.61,0,3.91q0,30.5,0,61c0,1.12.06,2.24,0,3.36-.11,2.14.9,3,3,2.93a20.93,20.93,0,0,1,3.36,0c2.88.29,3.92-.89,3.87-3.82-.13-9.32-.06-18.65,0-28,0-1.37-.28-2.85.36-4.12a4,4,0,0,1,2.49,1.77q12.06,13.23,24.09,26.49c7.22,8,7.21,8,19.51,7.4Zm-12.08-8c-1.65,0-2.32-.81-2.31-2.39,0-3.54,0-7.08,0-10.63h0c0-3.16.09-6.34,0-9.5-.08-2.32.66-3.4,3.17-3.33,5.4.16,10.82-.14,16.2.2,8.09.52,12.8,6.41,12,14.44a10.76,10.76,0,0,1-8.4,10C1537.12,1024.43,1530.18,1023.63,1523.31,1023.77Z" transform="translate(-177.6 -14.79)"/><path class="cls-6" d="M1299.58,1041.36c-.16-4.28,0-8.57,0-12.86h0c0-4.66.14-9.32,0-14a25.05,25.05,0,0,0-24.25-24.46c-3.53-.16-7.08-.17-10.62,0-13.53.59-24,10.81-24.46,24.26-.33,9.5-.3,19,0,28.51a25.17,25.17,0,0,0,20.67,23.82,53,53,0,0,0,16.14.36C1290.22,1065.47,1300,1053.72,1299.58,1041.36Zm-10.3.84c-.36,8.54-6.18,15-14.58,16.62a26.43,26.43,0,0,1-11.61-.41c-7.08-1.77-12.55-8.66-12.74-16.48-.22-8.92-.25-17.86,0-26.78.27-9.67,7.5-16.71,17.11-17.14a49.29,49.29,0,0,1,5.57,0,17.29,17.29,0,0,1,16.2,16.24c.28,4.82,0,9.67,0,14.51h0C1289.31,1033.27,1289.46,1037.74,1289.28,1042.2Z" transform="translate(-177.6 -14.79)"/><path class="cls-8" d="M1658.06,1061.41c-2.4-8-4.78-16.06-7.22-24.07q-6-19.5-11.95-39c-.83-2.71-1.79-5.33-4.3-7-6.84-4.47-17.06-1-19.52,6.78-2.86,9.05-5.59,18.15-8.35,27.23-3.84,12.65-7.69,25.3-11.45,38-1,3.48-.69,3.8,2.92,4,.74,0,1.49,0,2.24,0,4.48,0,4.51,0,5.72-4.22,1.7-5.9,3.44-11.8,5-17.74.64-2.47,1.57-3.79,4.47-3.71q11.46.3,22.92,0c2.67-.06,3.57,1.15,4.15,3.39,1.23,4.68,2.61,9.33,3.91,14,2.56,9.13,2.56,9.13,12.14,8,.16,0,.3-.18.51-.31C1659.43,1064.86,1658.59,1063.17,1658.06,1061.41Zm-21.59-27.75c-7,0-14,0-20.76,0a4.43,4.43,0,0,1-.22-3.81q3.59-13.18,7.19-26.36a12.61,12.61,0,0,1,1.09-3.13c1.61-2.66,4.62-2.69,6.35-.12a7,7,0,0,1,.83,2q3.81,14,7.57,28C1639,1032,1639.08,1033.66,1636.47,1033.66Z" transform="translate(-177.6 -14.79)"/></svg>