<svg id="Capa_1" data-name="Capa 1" xmlns="http://www.w3.org/2000/svg" viewBox="0 0 15.36 17"><title>ico-negro-sunat</title><path d="M15.05,13.38c0-.6.15-1.16.13-1.74A1.67,1.67,0,0,0,14,10a16,16,0,0,0-3-.48,18.25,18.25,0,0,1-2.07-.35A2.67,2.67,0,0,1,7,6a2.2,2.2,0,0,1,.57-.9L10,2.52c.54-.55.89-.55,1.43,0l6.06,6c.22.22.46.41.65.64a.87.87,0,0,1-.05,1.29C17.11,11.45,16.08,12.41,15.05,13.38Z" transform="translate(-3.09 -2.11)"/><path d="M6.51,7.89a8.84,8.84,0,0,0-.11,1.9A1.66,1.66,0,0,0,7.5,11.3a6.73,6.73,0,0,0,2.17.41,9.26,9.26,0,0,1,3.17.49,2.77,2.77,0,0,1,1.79,2A2,2,0,0,1,14.16,16c-.89,1-1.84,1.93-2.8,2.86a.81.81,0,0,1-1.21-.05L4,12.71c-.19-.2-.4-.38-.59-.58-.47-.47-.49-.85,0-1.31C4.27,10,5.12,9.2,6,8.39Z" transform="translate(-3.09 -2.11)"/></svg>